<mxfile host="app.diagrams.net" modified="2022-12-06T06:21:22.811Z" agent="5.0 (Macintosh; Intel Mac OS X 10_15_7) AppleWebKit/537.36 (KHTML, like Gecko) Chrome/107.0.0.0 Safari/537.36" version="20.6.0" etag="oreE--8AUDynDFLg8uKG" type="github">
  <diagram id="9sou_51X58MO43kv_UWP" name="Page-1">
    <mxGraphModel dx="2066" dy="1154" grid="1" gridSize="10" guides="1" tooltips="1" connect="1" arrows="1" fold="1" page="1" pageScale="1" pageWidth="850" pageHeight="1100" math="0" shadow="0">
      <root>
        <mxCell id="0" />
        <mxCell id="1" parent="0" />
        <mxCell id="mPUfiMTEVY-AYQIPyDyx-1" value="" style="rounded=0;whiteSpace=wrap;html=1;" vertex="1" parent="1">
          <mxGeometry x="30" y="260" width="330" height="130" as="geometry" />
        </mxCell>
        <mxCell id="mPUfiMTEVY-AYQIPyDyx-3" value="" style="shape=stencil(lVnJUttAEP0aX7tm6dnOhPwHVZjgCsEUkO3v8xSXhKdHeipust3Pva86xJu3x7uX4yG4t/fX8/fj79P9++MhfjmEcHp+PL6e3vF0iLeHePNwfj1+ez3/fL6/fH65myinpx/nX9M//LngvCQ3gYL7e/nCSaz/v/h6IX86PV+RR3E9eZBEyJOE1JGr+LRNXqXkjjxJDdvkPoqGjr6IEml8ldr/fxNH/h/S5tbRe1inEes4a00P+0YCWBRcADCo3waoE9erACMkYlIN0oxIKoWIpDpLvACyxEIBtfaAynVQCaUPIjc7Zh0QpfRhhLBrxA8AqOGQxHEdgvaALE0JIEs2HJpEonSCij2HGMQRP6QszgDgOBKt2VuRYpHgCADZ0odGbLPdVgEl2PxUL0qsVIp1HDwTiA4VOvTBB88UEho1SuuDTxONpZqs0nBlYTWpWMcpyhTxdEUgGB2aNCJS89bTaanK64Bg61iKEhkHFLLeDylJJjo0pLwRqc5arQOKDQ2EoxJPNxix55BRR5hITYLvAZVmHACxV7p4qUyHNhtxASz9axNg+k+VzJQeRELAV1LIADAdruoc8FuAZDiUPbOWPlqb2zNr60VCOLKq4Z2zQwOcz7riCgveqFeUgOG453QAFKLEJEC1AJrUiG83AJirqw0mAFglA8CaFc5nHMqs4hXAc0Duc3TSivlhDcDq/Vg2WqHVGD+3ZgGRAZYicQVgowAA2XgaowCPVjOSTYCd4AtWJM85lEGHnfBuA6CyyXg1R2lLWcL/CkDDFdE8hOtOoUlqAZnXvjCmHO9Bdvr+sMMWQgeZdlj4QabMc64OHCKZsaacK4MjmJmKnbEmV++Ugc8CzNiHFlGYWcHBBJMT5RxSn6RoczRJi93MMAg6blbtRUKrpp4utqVgGNgpxzqOGyyDRg6e9yDM/32xzMvUtTX2VQNIdNYFwPUiZXiaBZ/aUpaXjXYdEOeLwTKJlnmY3ZqmtddhmnWJ4zCvm2jFNE1XCDRewyHQSlbzMH476rhpSRlWCDaeYA2KvUi61JGtRcsbQJ5zcGuVMxsBFi3PAGFYg7CVEyvlZeO+3i5JAmHD8GZDbjSB0rD7xUytBDe5vkFgB2cTE2xicjp6ek/TYMeTUOc9Zx3grVmD0q0GALNohcBvIdEqPd1zSAJBB2NWn+lVEG4q5mK02G3rTJZ7K3nlACfBcIg0lmBENRwCvXr5OpzJsMYTx/nhdNrokl/tMIOEZnc+O1NmOlIOtyKl5M4K4+lh1tkCCXZE1SHLPJ14hlHVz7vZFnnvKLcju7cH8UTiwM37zdX9nLhpua5/kHsqe8qGnDVLZ7cpPs2iCZVPkKPcDuQsQ+ytw9Fr5CdfROyS4+HjncfD6enp8srk+nf7jgRfXd6vxNt/);lineShape=1;" vertex="1" parent="1">
          <mxGeometry x="236.55586478522264" y="199.56318549745674" width="169.49071230759455" height="130.649475449075" as="geometry" />
        </mxCell>
        <mxCell id="mPUfiMTEVY-AYQIPyDyx-4" value="" style="shape=stencil(rVfZbtswEPwavS64PJfPafofAeLUQl07cNzr77uqINlcWpMG6Jssz4hD7uzBITy87Z9ed4N3b5fz6evu5/h82Q/h0+D9eNzvzuNFn4bwOISHl9N59+V8+n58nn+/Pk3I6enb6cf0hV8zr1YqMrG8+z2/Yarp74vPM/4wHm/xTDE0+EpctvHC5M33KwVAKIFybgi+UJBtQo6UfUMImSpYISVyriHEsnziLiEmiqUhJKGUtwkqIHBDyJUcbxO8UIgNoQh5BwiefGoIkijVbQJnKq2k6imCFTgsAlaCUAZ7YE/ZOEOtgVborVQpgRXUqh1eQNw0qtXiK3CSnmD6CD4sav9RD1Pp9CSAd5SkO1BwPs76eooY/D6zxTPEV/N9PWFQK9Sj1eI9SMxIHCweZU0m3yZ+zYvC+7WIQu7wQD87m8YqiEHeq6OlWAJytOaMiCVASZqVbaHQmEVE8F3QhGrEe+hcGlBlcbZ21TVRt8LQpyVQpGFuw8ZudfqWj7JdQMAOPAVv8RkI0jzo8B7EwC1ZdROCAvTcy2P/H/Ha/0ydY3g+3BUibTYO5UG2Pby8Uyni0rzWholtHXRKaCVpS4aeCMTtprXpOxDk5O0KU1cHm868zATr4KI9FxFk6S6rsWVp0vf7mRLaAimwhUsmMZkDy5cUii3ekQA90mWyGgXpqcsAccWjvFFbGqOq00E/1onGTIK4TtRIPlg8mj+SbeAODjhTu3N2v0j/vfMEFp3Kjhi8oPPUMtjul+GQeVNnr4SENvDRy8S7eH243lxexsNhvvjc/m9vOvpqviWFxz8=);lineShape=1;" vertex="1" parent="1">
          <mxGeometry x="70.22695315758665" y="444.592726038288" width="21.187957867117802" height="90.62625645252842" as="geometry" />
        </mxCell>
        <mxCell id="mPUfiMTEVY-AYQIPyDyx-5" value="" style="shape=stencil(lVfLbttADPwaXYnlPrnnNP2PAHFqoa4dOE7b/H2oCqpNpjtFbooyo+VjOFxP6e5l//C8m2J4uZxP33e/5sfLfkpfphjn4353ni/6NKX7Kd09nc67b+fT6/Fx/fv5YUEuTz9OP5cv/F55kUJfSDG8rS9aoCx/3nxd8Yf5eIPnQilaQiYGhMQUHYGpxzEha0jVEGojyWNCSdTZEgJJGRNqoVYMoQSqaUyQQKEZQhLqgNCZkj1BC80dEBrlZAhatgrx3UYUiAPAC5Xi8ej73euCtwBH+JJthagBVShebDyVOoiHg7Yg2IC0Z0AVekK3MuJMGROaTYG1yEBGSkj2BC2qAGVrE8QRIjVUVaFkk9ayZiyjljwhoJCan05tdGqAUElcH4QaQ4JTxtVCRoTsGsebeIcnWIL6BY5IbEQqDJRy20bxOgsdzZo2wc5O2Nxg2OXq8AHPco8OL3jWslMRCRKRDoL1lkKCZ995kQ4G/n533pKwOfbt/L+ECjfC4kZOpB3ay2J3VhJao4g09GmC+r81vFzg3tSdU9xWi1TA3NT6YdFm2IeSKdocJG+dGW3maBunWWWQtO7+ZHPQ2QigcWoNbKV0Y/z/ZlDP/oSI7i/eXNQNGhh+puAyKLALupRsE3qiAuIJHyrE2+Yd4NkqW2Qr2QDv1qaULaMR3sYvDBd58LJuQhXGk9x9s2xLcYB3C61pPYEZMbHVg942G6gnU7X10ftvA2b92fvy//H6cL2cP82Hw3q3v/2/v8zrq/WHQLp/Bw==);lineShape=1;" vertex="1" parent="1">
          <mxGeometry x="84.56370354470755" y="500.98269705271423" width="71.27985013187435" height="10.75014389260673" as="geometry" />
        </mxCell>
        <mxCell id="mPUfiMTEVY-AYQIPyDyx-6" value="" style="shape=stencil(lVfLctswDPwaXTEEQFLkOU3/IzNxak9dO+M4ffx9oap0RFLajG+yvCs8iAXAQR/e9k+vu0Hc2/Vy/r77dXi+7gf9MogcTvvd5XC1p0EfB314OV923y7n99Pz/Pv1aUJOTz/OP6cv/J55OdOYJ5a4P/MbIRf/vfg644+H0wKfMqVU4ZlJPCAIyVgTMmnYJoxKsbYgmdy4TYhKuSZoLm9WCUEpaUUITB4E7Y0QKoLZdLJNUE+xJlhUGWRJYmshKXkHCK7NUnbk8zaBRxKpCZ4ySKvr8CMlZIDEtXjPIAIaxxbvFBwCjbHGx1K662VRolvigT+ZuPt+Anire+4CRnXKQrHPECIohY6QQZ0aIdZizgkXhRI3STKt4aAbrRkBSYetjEJLSKCwU3cMn4iZcq1ldo4cMKDF/NIh0I/WIg5AyibMLqUMUnrzdnFmEfhv+NDiUcd2XbwjBYAX4tziGcTri/WlbkA+Y9dXTJegl1oF+w6PK65VTYSNznTZimAkBR6ZaqQjoFZkhP+dZ3FmimRmzV9aQgKHcDehm5k2DQSEkErN3ObTbRFYd8i3MrBFIIH2bnXXnLONTLQnKFOoQ4hSkrBeqFx64W3sO5gj2wpCnVTFq0vkVpsf1btOsObZdK9U5vr6cmTaql2ycvfApRRJazVwachb+FzjLUdAPMmWgtjgUXe0smFt8AICtq0mcoN3oE6ztPMGT4NsQpB78IFC+31G+NtSs4gX+Z9KOhb5BN3Ohou0/qMtbRp2dT65NLONbtrNJy7K3jJw14Xic7w9fNxeXg7H43z5Wf7f3nbs1XxT0se/);lineShape=1;" vertex="1" parent="1">
          <mxGeometry x="140.07277252266977" y="489.5942601566435" width="20.342289619488383" height="84.92774910811204" as="geometry" />
        </mxCell>
        <mxCell id="mPUfiMTEVY-AYQIPyDyx-7" value="" style="shape=stencil(lVjbUhsxDP2avGpsS5btZ0r/gxlCyZQSJtDb31dpxstazh6Gt81GZ2VJRzfv+Ob18e5lv0vh9e10/L7/fbh/e9zxl11Kh+fH/enwZk87vt3xzcPxtP92Ov58vr/8frk7S56ffhx/nb/w54KLFOIZlMLfy4vMpPn/m68X+afD80q+UG6jfKKs2/KxUtQBII00bAOSTgClAjRwpjiaIEyhbANEiOsA4Eq5bgPMJTxqYKYUtwEaqIxeMr9F4FXNVGQEBKoJAIrXEDOFBgFxNDoGYgQQ0jIAtId+y2YdTZBOretOzZTz6FSKAuQDBXbfVxzlMso36CAJnndRO0+u8069wSlTA8xmoTTGzD5RASuMZXEEiBEV+NQAPPrUohIAjexIJQ2AEjoTrwMKpZFGNcAwm1vbqKHaJ8CRJJOOydYSMcj/HDuPF0CGJSlXSmEEaD/kVnZq9YAEuFesPIi3ofE2oEaqow21UQaAZm51AKEIbGiVeEyHIr0ibAFcHMwq5CUDNPaACqjRGqU8AUDgDOBKhtkQMMBVSQMIPlITD0ApGoPRfyRTycQgg84qsgdUDKhOg/ZCsumm4gGKNaQJgKw+hzp7QEN+NTLxpAEDeNKQ8ZGieEAEOWoAN/lYHAo6UvEpZwA0BZw1jGWjLOV2C5DUAxh0lLa0g3WOImrUPlWsUw7VmdbnljUA2dBIdDoSqjNtakHSe8xmAgUPUJwPc+Bg6Wv9xCuAYkB1Riuc9wygM71xHD4JiFRGQFVIjZqmNppgxllcy9R3P2ijrpCZVQxSNBdfjVfldmtILG54qCQgcjYlyuimJniIa726rzo1CrWtJzKWPmv2CQGS3wVK7MXwOiD61n6e+kCoDTDPlaiP2pH8xmSxRLOx9L+X2VjgEGcbWBm5EQUWV9vxHL8Vtl2ZEijinS/3pbPLY+ZpJHFchUuoWoHw6wyj5Gm9m72vM4pW0ObHN1tn4M5a+nmXkDGskjpVmLRMT9ddugxrq/0nAlLYKuBmK4mkwEnGShdkUWhDmnY4wTbE6kfQnKiiVaDPdot8xgr8KGZFEK3F0x7wobzbik0+gD4Sevlc5BUODMHvhxnPbcGngcknkGfTLUBeusqWfPDyaKs3eRcv6weAo8GPnSaPls/g7wBMPgFKB8ru/Az5E3zzMHm00H/2/u9jeXt4v2x8ODw9Xe4q1//7y0l7dbnY5Nt/);lineShape=1;" vertex="1" parent="1">
          <mxGeometry x="156.58496667772943" y="512.4388546989624" width="124.16697018988089" height="80.44494713057748" as="geometry" />
        </mxCell>
        <mxCell id="mPUfiMTEVY-AYQIPyDyx-8" value="" style="shape=stencil(lVfZctswDPwavWJIgOdzmv5HZuLUnrp2xnGvvy9YVa0IStv2TZaxFK5dgJM8vB2fXg8Tu7f77frx8PX0fD9O8m5iPl2Oh9vprk+TPE7y8HK9HT7crp8vz/Pv16dm2Z4+Xb+0E77NOO8cOddg7L7PrxwV/vni/Qw4ny4rQA3kfWcfiGXfvjCF1Nl7phr3AVk/kDtA8yjvA1KkKB1AHCW3D4iJcv+F4CkBl0KmWjpAFAoIoEnlDqBOStgHyJDVnEhAWjXEHDpAiUuiNwFcSfo6VyYPvqCA2LtU1SXQGQoofZZqJQYuadLZ2ntQaO2b2tsXqiCCuPy7ss8gAO+WhKwAETjkI/lgAaGCCJwlw98AcSiCuoTLnMsQtAeNxFTckFUEUL4PZfaADApwwQIC4Ke65IfGSKhVNUSxACRiTbOcBVTAT18toVfCuY2QDZ9+qci2UFKpQwyg+cLAhgoLzYtirasAWs9THKrGoMxMMpyPEhQoD2zOwJ9CaWBCAvFqAcJIHQTQ8waPAqgYy1CysoyivT4NeYgBsFk81UEvCpojQjUPVQBdpOQUbwFI5bcBIK1uGa3rPgIeuWVmrMcOSOqwv9Tf8rHT19IXrQ1OkNJAqZc7ncyMeOMWWq1nP1KKYidz2y4AgJMdtG1/QYIaLTd1fYhofxGKfQxtB0Mrlbdf0C0PLm1syxzgNpIyud4jB9VO7Usy9oiaqVq5cySAmZnJibFn0HVZVwXrvwcJzcpze77Da3aO1h6cX9KyCq3sQT6rps9eE5CuVLE96uBupyRPtl6INE04s7FH628bpt7YJzTw//de9A8AffhzDXs5nc/zLW79v7226av5yiePPwA=);lineShape=1;" vertex="1" parent="1">
          <mxGeometry x="262.8331650347809" y="452.586555795348" width="8.578194016560246" height="185.09585806156065" as="geometry" />
        </mxCell>
        <mxCell id="mPUfiMTEVY-AYQIPyDyx-9" value="" style="shape=stencil(lVfZctswDPwav2JAgudzmv5HZuLUnrp2xnGvvy9UlY4IStvJmyxjKRy7S3InD2+Hp9f9zvPb7Xr5uv95fL4ddvJp5/3xfNhfjzd92snjTh5eLtf9l+vl+/l5/v36NEVOT98uP6YVfs24Wqm6CeX59/zGkZS/Lz7P8afjeRFfCmUT78nnbUBOxKED+EgpbANSplA6gEQStw2ImVKfUkgU/DYgZIqpA8RCDhQtmXLuAKlSkm2Ar+T6onOlArrkPUn/BW20BzW4IaUayIMuudgyvgO0DREAQpvrfdLMxLyNYIrjF1BK5JONZzAGT9n38am9WZ/z0CLlBaIquWrjBUy5ruQjgNmqFMdDQhWOgMtQMahAhxyGljqUkqqzWsA/cWx9oZoaCiSF1mAMRgEBsULIiwVkVIMjHgAV1FAa7+/xtXnUuiNZB5vWR3ZBOQ0FoDG3bJcdAuszFT+MAKzPjfWLGSegfKY66Bh5kdLa5J+oAN2EoZ+JIuy/DOsLnG8ZVCPIS12T7VKXoAClaBi+kLBqrJAzVo3KbJgZ2tMmIUcLKCiljwLu3r9QTYKssO6oLAJTjlTMEKTxcL0Abg25b5kZA9QK+4p1U45oU46UeyHoto+IpAeV0AP0bIK2/RDtth8SlHJUIvUAUX8FgCQ2Ja3KA0DWOZgDnoM1FBVvv4Vw4+56vDI/mfgMpDBNlU18QOqv1l6YPHC7yrZDTA7sT9U183+PZ0AKpbE5nuJTVI3NbBfxKP9kT+Tc/Hg9vlghMzy1TJujXR+dECZbsHwoyLl4cBYHNfDRK8v/4/Xh/X70cjyd5uvV8n97n9JX811MHv8A);lineShape=1;" vertex="1" parent="1">
          <mxGeometry x="309.48849505902444" y="486.5868919033858" width="20.923331021005197" height="120.33434756029692" as="geometry" />
        </mxCell>
        <mxCell id="mPUfiMTEVY-AYQIPyDyx-10" value="" style="shape=stencil(lVjZbhsxDPwavxKiqPM5Tf8jQJzGqGsHTnr9fblYaGtRu+P4zQdHy2NIjnYnD++vT2/7nXfvH5fz9/3vw/PH606+7Lw/nF73l8OHftrJ404eXs6X/bfL+efpef7+9jRZTp9+nH9NJ/yZcZEpyYTy7u/8i1CYf/g62x8Ppyv7kCiUzj5Szdv2UolTZ8+eqgcAITGAShl45BMl3wF8oVC3AXpe7AFSqCQA8JRMzI48CDpR6e2TJ1dAzO3fZp+FEoOQKbjOvgjFsG0fSfrzq6MM/GGm2tegRvIOOMQ2Q1VzgGghVNg+QUDRQiaJQwwg5sTki00SiiEHy+y8UHEVUCKlvgxaZg/KVrW1guVRAdSuQ9BBiRchINae2kwO1KGG1oxL80gr5TrAkfRBcyEPCldCo+YCCK091utQbNCs/QHqkN3wBE8MXEraLc4CBKQ1VhIeXEINV6i6AQCooYDI1qWCAX6IIYAsxUy1WAB0KVPpuaRjIYDCTU8wdXBUUVoLMVsAjKHYwacARG8FZDPIqIDlo4XmbOzR7lH7WO47v8Z7Akja73JPihQQhpyiIkwA4xIuswKkz9FEJDBYFcDRAmCZNYlDQ8NmqEMMN9qttvb9fEOnwaUKgo7LVLwCRDCUFGBd8o2Mm+1mKq1b+MYEGACM2Dq65KAuWQnawUk8prW2ofPJulUoAiZ7ucNeN0Ow8wJtdF092agSvKrKMFMd7B3VGHGQzw5JBrYLnWMTc1uSwfUuqbwUEDO7xeVrkYEeUW0QgZsEXwfEJq8XoYS7rWRiI8UCJUCkHCn3gJxaHtaZodKuz2tJbXttCVazb1X+IdEtYeC2igJ08eFBKDnMJiWbGaxa/QqiluHi4NukXbUfmDFdTECSnL0F5OVqs55Uyj1Xp2WELjLan33VQsHkzpT6nEpqR6wXITQFv7RPgiNPhgu3PhMJaMn2fqtRoaEUor3IeEg8vYQYjxxkdnRWxGDWxeEmdtPe3Ktc6+4t+2rtUUJ1lrD1P6L86DwMxr4iUejtEtFGxfb2OtK2yub5/XTUgG74H439jXjZnl/Rkh1WjjTRulnfe1453bbXD//fb70cjsf59dj1//Z9mP40v0uTx38=);lineShape=1;" vertex="1" parent="1">
          <mxGeometry x="333.45661635516217" y="532.5935203928248" width="102.76951978973693" height="79.44034016488285" as="geometry" />
        </mxCell>
        <mxCell id="mPUfiMTEVY-AYQIPyDyx-11" value="" style="shape=stencil(jVbLctswDPwaXXcI8AHynKb/kZk4taaunXHcNvn7QtVIEVgL05ssYY3HLpYc4sPb8en1MHB4u10v3w+/x+fbcYhfBubxfDxcx5s+DfFxiA8vl+vh2/Xy8/w8/359miKnpx+XX9M/vM+4lpHDhOLwMb/JCZL+vvk6A07jeQOoCbEYgFSwA5CMRgZQK0rcB5QEshlaQZB9QA6I2QIaatgHRC2Je0CifQAzYrOAhJb3AUQgsU0X1OqUhJTsVLXnsh8fECxtJaI4LRPYdqxDqx4JaLb+2FwOqKDYBrghOxPSzxwtIIKdCaW4ULQCwqKs+7IQSAdgFCeDBJQOUJHY2YUAqXZKguyUVAVklZp0rF4G/WwBhSAObyoztiWJLqxTkjSQJa5mJIe4UnsDaBHNGWvOCLYk3bbgaDUpD3bbKAQXoXIVuw5qGdVZH0rI3X62xRPuN4HcuZ7GOxWFxeJW3gTVmWoA25anqTk8a/12pokhzY2XPt6zSGqL/Wy2zUvA67GxkhYXH7/veLzoch0RmhOfCLFzGGTn3MnUjzSAHJnqYuU+3tOc0D+O569yWBT52S95XlF7TZMmcBrWI0msxyuJyfHsVntRs7gUbNZwY3he05qi2RRJu3Z0rfeR1C2CtuUszn9cYPTh8/rzMp5O8+1p+72/Lumr+aoVH/8A);lineShape=1;" vertex="1" parent="1">
          <mxGeometry x="174.42846134348883" y="350.091249557119" width="4.489735989537621" height="5.054182151994837" as="geometry" />
        </mxCell>
        <mxCell id="mPUfiMTEVY-AYQIPyDyx-12" value="" style="shape=stencil(lVdJctswEHwNr1ODHTg7zj9cZTlSRZFcspzl9xmGIWPMkK3oRkHdmH3BEB7e9k+vu8Hz2/Vy/rr7cXi+7ofwafD+cNrvLoerfA3hcQgPL+fL7svl/H56nn6/Po3I8evb+ft4w8+J5yjUkeT513TA5POfg88T/Hg4fYB7KtzBPfm6Dc/EsYNnirwNb5RbB3dM2W/jXaTWa+8yZSBAzFUEHymkbUJgKq4jhDCfrBIiUy0dIUZycZuQHJXe6JSIA/CpxKC3IScqQEIJswIzoSTKgFBF49ARaqJWQNzEJ73RTdwK0qg1an0eyUlEEpoOnJwkQHDMxEZEBrk6ikia8Dc0W4QaNaFiCdkY0UD2jU5phoBV8rqCFj9sMdiKQJGo1IIhIAmVqglEBSUkhGL8impuJJjIJeQmUcmb9MOEZlSCnayRc5oQQM2Nf1sCMlpMtATQLEcnmjjcKNKajdHYhmYICbSyjSK9IaJoQsElVE1+V0yw2deAEaONxuqG20DoCf9RpO4+EXWlXUIj6lovQ4G4m2BWB5kRBahUwzwGlymUYUUUr7cNmXPIS9lR7pMpy8ICCIk1QWY1KqFgkkm2gYj2q2WqLftGJAZVLfta7duAbDQZSHBBt2PZmVD/rpQUnmEqRa1QngO/rg+Fvj49JZBGrGPMlIB7TH9hikD3FThq2gJPCu4hXK1VPJf1Btzr2xnMKNaOXFy1AU/mdlBcsgd7DQdRZd118e3OOpJBj3bk9O0Op5iOqkOr431Poptw+fj3+no5HI/T4+3j//q1JkfTSy88/gY=);lineShape=1;" vertex="1" parent="1">
          <mxGeometry x="176.59246164765545" y="137.58513129132257" width="198.17481299856217" height="363.91578305041617" as="geometry" />
        </mxCell>
        <mxCell id="mPUfiMTEVY-AYQIPyDyx-13" value="" style="shape=stencil(lVbbchsxCP2afWWE0AU9u8l/eCZOvRPX9jjO7e+Lu6OtwWvSvq1lDhzgIDTQ6nW7Pm6GGF7Pp8PL5mN8Om8H+jHEOO63m9N4lq+BHgZaPR9Om5+nw9v+afp9XF8sL1+/Du8XD58TrgVofEHF8DWd5Agc/5w8ToDduL8CZIIWFEBccLoPSBly04ACjPcBlIFNhOZSihKhWkB2KGGGViyl4FCqtkjcelLLjCBpQixlrvftAwSdcUUI5NkzKfsynyz3ANg0GSE59ohQUQESuT0TRkUzIobqZEwC0JSo+DIKXQNXEaKXc4OmdZciVHaUXbu/uUrSF0d3Bbu/GdAAHVkUAtS6Kw3IyUEiGEpVAF4OpROYlSdVciglhmxGIQM6lKjZHGTY0Ol0ZDtsGGa9L6uv9bLPISpkT64BkrkxojvPZKXB6Zt5SzqFmiA5ygi2CyW5wiBrn1PPaNF+rvgsbbm/HP83PRN7dPynCqiV3dxJkKUQTABITv1lTlgngEDZmQMZTX0f+QqS9pRq7JPjn9GunNgdLNvzTYPdhdPILgS5Yb2VJoInPfjIvQTLAFlIWWeQgbwdGG6WDsn96ImIoegQciejl/XN5hfZNacN//0Y+QeAfPx9+zyPu930dLr+376V5Gh6Z9HDbw==);lineShape=1;" vertex="1" parent="1">
          <mxGeometry x="167.7686342366842" y="330.10621688227275" width="6.1251374206831315" height="6.1251016565747705" as="geometry" />
        </mxCell>
        <mxCell id="mPUfiMTEVY-AYQIPyDyx-14" value="" style="shape=stencil(lVfLctswDPwaXTEkwOc5Tf8jM3FqT1074zh9/H2hauiYoLSd3GR5QYKLXYCa5OFt//S6m9i9XS/n77tfh+frfpIvE/PhtN9dDld9muRxkoeX82X37XJ+Pz0vv1+fZuT89OP8c17h9xJXKxU3R7H7s7zxVNK/F18X/PFwusczVenwhWLcxhcmx/36tx1XA7IQxy6AK7myHZCYSp9RcOTqdkD0FFIXEJk8bwfoetxzlAKx3w7gTKE/dC5wBx+plC6gOioB0ErR93glCeCzrZriA0goUS0WnwVwSjlafAX4QJJ7VTgtGpAFryRUwYE95TAcAOAd5TwQBHTtyKehABnhXS+hWijB9blaPAO8H9bPVIAJ1JbJ4hOQtJBEiw+gT4RBEIoHgkjkh/wjFDRni8+Af/WfWD490JsabOA/AD61mkN9K+BTdx/0JqgtkgwGToAf5XPwSwFdNNgmOvsLnFdaNe/xgH8e+Nd8UEckNzSUCPTmSNjiGfC55scMzqt+DxYvgM/P4lXtJh/XFLLOj7abfgJkNRgQhGhH7B2fpA2RdUVwK+htTOrgBAEx2MkttbX5dY2GVtLbqFeSQJH1bmBUPdOAbh/STHhjqfWl9duNo2A2IAe6luJrf2SdI4Ci6iklg0ddUW9bMRs8unhUaU3hA4+mUg1N9Hd44Joaqdr8HXCxNmVXDB7dg9QkzubDwJVzkxWDR1NjbiK2XgXxX61+PHalG/qKhyb79PX7v3h9+LjrvxyOx+VT4f5/+22gr5bvCnn8Cw==);lineShape=1;" vertex="1" parent="1">
          <mxGeometry x="83.32601763558023" y="231.588641672834" width="29.087420227881466" height="97.74331453140758" as="geometry" />
        </mxCell>
        <mxCell id="mPUfiMTEVY-AYQIPyDyx-15" value="" style="shape=stencil(lVfbctpQDPwaXjU6d53nNP2PzIQUphQyhPTy95XrGJCMl+bNMbvWZVc6J6v08LZ5el2vIr+djofv61/b59Nmlb6sYtzuN+vj9qRPq/S4Sg8vh+P62/Hwvn8e/359GpDD04/Dz+ELv0depCwDKfKf8YUkkvLvzdcRv9vur/AhUA6WkCkgQqfKPsLHJ24SohJcSkzSlwk5UIiG0DKlukwomkA3hBqoyTKhdmKbUu7UQQTtidgupUgtLhN6pZwMIVABNfdGnA2eKQMVFN+SwzMDvFD2348oH+1Qc/nfwRfb0Ugd5dOnn88KUEeu43N9Z1NQBK7TAGIL6JQbLsAJFu4RXEIhEaOMhFLxhJ6gxtURdDQRoU4mvopQkQp1mqszIVICg9MLdTsHgXGEQtVGUCOCQRvw1qeVAlKhkFi89hQVUCnankYKSLRKYncRU0P5Nyrs8Izyl8nFFzzMR7yt8S5Vl7o9pALfGRtbb6aILKdz7FYv3luKt3rJtMiW8M4/argPxZcIwSakli5IsU6RP0MQHRrXokoMam4qqY1Q1aTg8Ch5OrLPu07HAhD0xOxWZRHYpcR+vQ+DBIrWU79Z3QYnAuHm9wptdAObYnZxuVr5tyOQyCwAGLXgZbuccTfx7CdBZ7tDfHb4SgWMmrrCdTRTA6M8OwA7PmLneIZH7Cwf0f4AS8zqlUYJeG7WTymTgv+nl17CsL7OD4pn8P3P3pTv4/Xhci1/2e52463++nd/jddX478A6fEv);lineShape=1;" vertex="1" parent="1">
          <mxGeometry x="99.562141204402" y="280.5141339850636" width="57.96061312108577" height="17.934277303279714" as="geometry" />
        </mxCell>
        <mxCell id="mPUfiMTEVY-AYQIPyDyx-16" value="" style="shape=stencil(lVfLctswDPwaXTEkwAd4TtP/yEycWlPXzjhum/x9oWoUi2S0Ht9keVcEiF2AHOThbf/0uhvYvV3Op5+7v+PzZT/It4F5PO535/FiT4M8DvLwcjrvfpxPv4/P8+/Xpwk5Pf06/Zm+8D7zSqHME4vdx/yGSfz/F99n/GE8rvCaKaYK75mc2ybkQhJqgi0ZAcGR1CtwIZ+3CclRqlMIjlzaJkRHUStC9JQBIXiSeoUkFHibIJ5SrAg5UZZtgu16cBVBC6WyTfCRcr2tRSmBwvlApSHYtoIcvLQhGSGCwnlPXFqCAoKSSq0M56CWEnFuFyhAGUKqLT4ryICKb/EhbONNR7mtQQHf/8xuhQ9Ad464dkLJVICK/GLdFR7FL4tNVngHChZbGxRTNRBpJg0dHtTXm/W1I6CCceuzKQO0Q4GCdFuEXBApclcDlEMkbQi6rLlFaG1jKkI+EyqdzwKyPi9VXfsA6M5az10+y+Rr3d0ycqDU9SIFATHFzpgRGueLXgeN7DtjJoh32uI9yPdefKJU420a8A3R1QSbN4zmjcm6zjgxKWqloQ3JZiaayiFQrFUquJnGQL5WqQ2ICGRtEZc6BztZOECwk4U2Zxe/KPfrAWVTuTaCdVjQ71SI6xQc9I1aN9IGn0CZNbU6dfiwpst+XPFIdqXzAbZx4T5fiA8k0sYD4rfuz9zmC1RtrVnbfBPCm17q73sc/2fbvOLh8HDdxPewz917Gr+Nt4fr0f9lPBzmm8P6//aqYK/ma4Y8/gM=);lineShape=1;" vertex="1" parent="1">
          <mxGeometry x="141.52259856465753" y="243.59381947302154" width="15.892435365642086" height="76.14494258419904" as="geometry" />
        </mxCell>
        <mxCell id="mPUfiMTEVY-AYQIPyDyx-17" value="" style="shape=stencil(lVjbUhsxDP2avHosyxf5mdL/YIZQMqXAAL39fbXNOETy7gm8Jbs6a12OZEk7vnq9v3ne71J8fXt5+r7/fbh9u9/xl11Kh8f7/cvhTX/t+HrHV3dPL/tvL08/H2+P/59vFsnl14+nX8sX/hxxMdSygFL8Ox7E+P/B16P4w+HxTJxDq148bYvXkJoTJ9oW7yFmJ55kW5wodHbypQH5HFo38gTVoRbY6pMCoe/38XrI5xCxfLferEEYylenv/oTOUh8dImDgPCqxcUB9MkFgDVBfZoytKGRBRTIOPUhRwuQ8Yl1ikbPCk6DV+sAGV4/AZQoZRuQW0jWaG7QhlJCtsRgpXoHeZM8IKtbgUpVVbJeyjxCuQ5Qrlqjcx1WrQMkJEu+LKMYrANqiDbShWD61OyrReGQAb0VwGIBJQgyWvPLASQUQI1GoVpApZAB+ZoEsgmkSqIUleJrhirZAaCrSskAmhYBQL5efRFoSg1Avq5lxtK7tZCBWymeLo2BEIKR6y2I5Yb6gQGZ+sQNEegmfV0tvzvDKiBaGS2/1XECVJLkbyt1XEMn6HVFHiDIBhpl6AzQQQYpwFXjs9BsIVwKXT4ifdaIOJ1wwU1xOgFd6xIHE84AjG2IyQMIZIQCaAKgvmfxkg1EV7riOOTsAYJPcGVgAYDKpACJEwDxm3x3stiA3JpGt3PuVmRD8nfQEjhkwxoAtSerKlXMVm+00huz1btVEwgDXOA+kKOeG3oEpqtnnwIwmWZ+N3xCnAJRQeu6mqP5QhWY/Io6oNU6g7rvzwM4kHNrwaFuI19OgARP0Csq2xP0GiPg1l596yrauiKA+A5oYRcGuH5dW5yIrvYyuHkCZFi++0Q+7bpgy5T9tai9KeqmtX1xNtQCB0tVIFobloYcRHrpdW0cilYy1Imyn2pKhdRYASSY02oiWRtKDAwivYwQbiIQ6CX1Otm6pCMEo6mm+sYyZ9iJqtf9CQmeUCajc4TjqGrsUpRPHfzWsOhSlAvsf3QczZbezHDrkE7d+Wng7aOD35rymz1BR+oKqEHVq6RDO7p3F4CNg879cBPSQrFcIsYjhEyAiHcn09De8C5HfP5keK+ryeKIMSaQrd1SsfIJu5RGe/e+i0KbGfE8peGwrcWbC9jo8z+21iNYKqalIcFipxng12746+y/jjyvCe4diW6P0wbyXTyCLjjOK8kOwjoNwhHuSFbEUT1cUQbd3ZOpcaxwPubICHN8ClOEfcFEArw5/uRe+qK4/nhfgd8dHh6OG/Tz935lro+O63a+/gc=);lineShape=1;" vertex="1" parent="1">
          <mxGeometry x="294.5952230553662" y="177.5849133514073" width="216.4600169825785" height="210.0033266924563" as="geometry" />
        </mxCell>
        <mxCell id="mPUfiMTEVY-AYQIPyDyx-18" value="" style="shape=stencil(fZbdcgIhDIWfZm8zQAg/17Z9j85U606tdqz9e/tmZ0c0uJ47xP0I5JwEBl59bp8/1kNwn6fj4W39M76ctgM/DCGM++36OJ50NPDjwKvN4bh+PR6+9i/z74/n6ctp9H74nlb4nbmSKZeJCu5vngmZ6jzzNAO7cX8FVKEsBuBKrgKg9oAE8gkCbLeUhEoEQKSUDZDLeWYRKIl8MEDRmHwfyBrBG6Amyu4+kDxxMoB3jhwgYu7TVAsVkFcWCs4CTBEoF4RctKeOxHIf8IXYpikHikAIf+MNUW94AGSSaoAoFIE3AlOyeWU+p2E5S9yfQZcQILVuQOwZdJNoS9Ls3wA5u2XZTIHECqeJ9kDpSaauRiNVcAY1QhdBzeLBli5WazpkSsBLV25uRaqWRyFawTQzRRIQYirJzq5atkBqLfouwqUxLBepthWb10vrWZY6UOAeyKCCtDV625mm9gmUC4Wc3VLJMMIE1BsA2FW9JraVlQB7n3c9oMKhCLEvIM1zBPZ25/umNQ1tVEC2G+fFCC8g398O2hNQuQlVu752DBfA+q0ptnqO5JFmeuIuo9DY7KjY71UxdJV4EntifPWorW++R/dC4t7V3DlIB5cHx2bc7eb3yvX//QNFp+bHDT/+Aw==);lineShape=1;" vertex="1" parent="1">
          <mxGeometry x="482.8679608424759" y="432.87531245851915" width="4.672539772115215" height="4.665236216357698" as="geometry" />
        </mxCell>
        <mxCell id="mPUfiMTEVY-AYQIPyDyx-19" value="" style="shape=stencil(lVjbcloxDPwaXjW2fJOf0/Q/MhNSmNKQIaSXv69OGQOW8dK8EUd7ji67knxW4eF98/S2XrF7Px7239e/ts/HzSp8WTFvXzfrw/aov1bhcRUeXvaH9bfD/uP1+fT329Niufz6sf+5POH3CefJywJi9+d04MjlfwdfT+a77euVeaTkO3PfDm6a+0hSO/tEDOz1+dI/XyiHuX3IVHLvD5M44H+l4npAochzQGaqsQMwUyhzQEn2DVwo1TlAss1R4HZyE1ATudQDhByIoVYKfQwxkANp9U5Z0AcRC1WQ1yrkQ19ohsxYgugrnbSWAgCeYukA2VEFQYi6xD0gtlreBiSKvRayQDJJaA40QMHcUEDuK6dsyaByEin2dShCBQWdLJnEkwBBSxkUl2AHkEq1T+uSaJDWyo2cDVC1cAkANK19DHqC0lozuZ4ayi5UaWWrUZCeoDos9BYLEOSSEJugK3kUtL6hWABqTEsM0QIyckkrHSwAUUMBSSyg4jcEMx0ujWSGGINAotZSG7oqALaN3AbIFSBhMqXBpYBiUMDwBtiO1aVe1FrLgrgxTDkFJPyGOtA14FLzIAjGpU48AFAdSivTtUv4DbYLSKvMVEFDDJAa0naR68Ld0Wi1gIDYqhodAGgXWIIeXEIjSAF5aBuw9RU7Uf5Do37gd0VkUo0OfUOQTyqIAZCxID4JiENeM+4zPDTLiBXkSIwgPNzidGqaGAS3Dd0TjeSWYY+2jWgbk3A7uQ3gYZ+pjcAzgB/2mYQ2JnXAADwVHAP33TiXtn/MslTNmhhwpV2T8HkRrY0ss/VEegUlrcOd9t3HkHxTyKxtmFvWsn1jgJGoLvhwXR/SGs53hFlazYAIEU5FJYJxiWub9bOLVuyD5gDTqlc50429QGqEIQa9ngYA4HOIl17ZtrTZdTcY8sEJFJp+z0lti+xNc2f17FsLmZgHEy5cfByxCZYi0I2zo8237M7M2ZijUTvcPx2cIK5dZy/m6LOBVtEb8wifzvbpaDfSvFdjju5Hzm7ZDurE2T0KT29ntyjX7t23Gfy5z0F3zfXH5cvTy3a3O324uv6//VKlR6evXOHxLw==);lineShape=1;" vertex="1" parent="1">
          <mxGeometry x="360.5856532032494" y="375.5904446662157" width="165.51010416588088" height="161.77778198394003" as="geometry" />
        </mxCell>
        <mxCell id="mPUfiMTEVY-AYQIPyDyx-20" value="" style="shape=stencil(hVbLctswDPwaXXdIgC+c0/Q/MhO71tS1M47TJH8fqBrZBmOhN5nmEgR2F+DAD6+7p5fNQOH1fDr+3ryPz+fdwD8GovGw25zGs34N/Djww/Z42vw6Hd8Oz/Pvl6dp5/T15/h3OuFjxqWAmCYUhc95JepK/rfycwbsx8MtQMDVABiZ1/eXALIBdCGs768RJXT7c1zf3whk75OQaH2/RES2CUc3AamgYgAUEdo6IIaAYFNgQhAnhCwHXnJgsAdIyBaQGc2rUoGIARStm0NzrcuNL4CK5vGcIbauRSB1HZATiq1raUhOhKTE2qSLXyUuSFZ6OS/ivQ+Iy3kXHjLIKSsJms2BGeJoYxJCtGIitOQAam+HSG5ZU0GwfshIjt9yWex19Zs4/plk0Ps5eH5uaPY+hOok3FQE2ezXAxyhSka250ctmW+2ZEnWCOzcSAHVAlhQHAqk9Cnk//QwlRFZgMZ0SJgA/A3gRahg650awA5t2laTVXaVpYXc51mtZQHKJHkNQ4VnlT11NQegSu0mjzQXoObtuuRNa77vtoRa+hCe+nTYZMuc6tEbn1HdaJNQLqPHXD+uWnRnCS3uvfCm4825kE77rgvr+Y4bvs021XY0HU8/rq+N7bjfz4+V2//714kuzS8bfvwC);lineShape=1;" vertex="1" parent="1">
          <mxGeometry x="1150.4264650218206" y="440.843457294013" width="5.730126748010662" height="5.744316964032123" as="geometry" />
        </mxCell>
      </root>
    </mxGraphModel>
  </diagram>
</mxfile>
